<svg xmlns="http://www.w3.org/2000/svg" viewBox="0 0 500 500"><g id="freepik--Floor--inject-3"><path id="freepik--floor--inject-3" d="M89.72,440.46c-88.52-51.11-88.52-134,0-185.08s232-51.1,320.56,0,88.52,134,0,185.08S178.24,491.57,89.72,440.46Z" style="fill:#f5f5f5"></path></g><g id="freepik--Shadow--inject-3"><ellipse id="freepik--shadow--inject-3" cx="217.1" cy="413.84" rx="70.87" ry="40.92" style="fill:#e0e0e0"></ellipse></g><g id="freepik--Plants--inject-3"><g id="freepik--plants--inject-3"><g id="freepik--Plant--inject-3"><path d="M147.67,333.09c-9-7-22.91-19.77-33.32-37.48.83-4.51,3.29-7.27,5.69-9.92a22.1,22.1,0,0,0,3.76-5.05,6,6,0,0,0-1.63-7.19c-1-.76-3.76-2.17-7.63,1.2-4.05,3.52-4.5,9.69-3.53,14.86a101.31,101.31,0,0,1-6.31-15.45c1.37-4.49,4.21-6.95,7-9.31a22.19,22.19,0,0,0,4.36-4.54,6,6,0,0,0-.72-7.34c-.9-.88-3.46-2.62-7.73.24-3.62,2.42-5.1,6.9-5.36,11.31a93,93,0,0,1-1.77-21.29c2.88-3.63,6.38-4.9,9.78-6.12a21.44,21.44,0,0,0,5.69-2.67,6,6,0,0,0,2-7.1c-.53-1.15-2.28-3.69-7.29-2.55-4.57,1-7.68,5.15-9.46,9.53a109.32,109.32,0,0,1,5.43-22.67.51.51,0,0,0-.32-.66.52.52,0,0,0-.66.32,110.79,110.79,0,0,0-5.53,23.13c-1.27-8.5-5.29-14.44-9.24-16.22a4.69,4.69,0,0,0-5.27.57,5.6,5.6,0,0,0-2.09,5,9.19,9.19,0,0,0,5,6.51c4.22,2.18,10.61,6.49,11,9.41v0s0,0,0,.07l0,.09,0,.06,0,.42a17.69,17.69,0,0,0-.15,2.63,94.7,94.7,0,0,0,1.27,19.13c-3.64-6.8-8.74-10.75-12.74-11.27A4.7,4.7,0,0,0,83,252.89a5.61,5.61,0,0,0-.54,5.43,9.19,9.19,0,0,0,6.65,4.79c4.25.79,10.72,2.74,12.76,5.12a97.67,97.67,0,0,0,4.6,14.32c1,2.35,2,4.69,3.18,7-5.68-6-12.1-8.51-16.25-7.8a4.69,4.69,0,0,0-4,3.42,5.6,5.6,0,0,0,1.07,5.34,9.17,9.17,0,0,0,7.77,2.62c4.61-.52,12.07-.53,14.22,1.55,8.12,14.29,19.89,27.68,34.61,39.22a.57.57,0,0,0,.28.11.56.56,0,0,0,.45-.2A.53.53,0,0,0,147.67,333.09ZM108.15,254a6.76,6.76,0,0,1,4.18-1.37,3.55,3.55,0,0,1,2.24,1,4.94,4.94,0,0,1,.57,6A21.06,21.06,0,0,1,111,264c-2.34,2-4.93,4.27-6.54,7.87,0-4.63,2.65-11.36,6.8-14.53a.52.52,0,0,0,.1-.73.51.51,0,0,0-.73-.09c-3.54,2.7-6.4,8.41-7.07,13.28C102.71,264.65,103.13,257.34,108.15,254Zm2.67-28.27a8.73,8.73,0,0,1,2.62-.23,3.91,3.91,0,0,1,3.49,2.2,5,5,0,0,1-1.63,5.84,21,21,0,0,1-5.44,2.52c-2.9,1-6.12,2.22-8.93,5,1.66-4.33,6.57-9.66,11.57-11.12a.52.52,0,1,0-.29-1c-4.27,1.25-9,5.55-11.37,9.86C101.9,233.71,104.92,227,110.82,225.7Zm-21.91,3.61a8.09,8.09,0,0,1-4.43-5.71,4.57,4.57,0,0,1,1.74-4.13,3.33,3.33,0,0,1,2.55-.84,4.77,4.77,0,0,1,1.61.43c3.64,1.64,7.49,7.48,8.67,15.7-2.61-6.29-7.66-11.62-9.69-12.91a.52.52,0,0,0-.72.15.51.51,0,0,0,.16.72c2,1.31,7.29,6.9,9.65,13.33C95.22,232.61,89.25,229.49,88.91,229.31ZM83.42,257.9a4.53,4.53,0,0,1,.47-4.45,3.61,3.61,0,0,1,3.56-1.63l.3,0c4,.51,9.33,5,12.84,12.51-4.31-5.26-10.7-8.9-13-9.55a.52.52,0,0,0-.65.36.53.53,0,0,0,.36.64c2.34.66,9,4.49,13.1,10-4.09-2.36-10.71-3.62-11.08-3.69A8.14,8.14,0,0,1,83.42,257.9Zm31.8,17.54a6.28,6.28,0,0,1,4.45-1.88,3.47,3.47,0,0,1,1.87.72,5,5,0,0,1,1.32,5.91,20.72,20.72,0,0,1-3.59,4.8c-2.07,2.29-4.35,4.85-5.5,8.63-.59-4.6,1.21-11.61,4.93-15.27a.52.52,0,1,0-.73-.74c-3.17,3.12-5.3,9.15-5.35,14.07C111.15,286.71,110.65,279.4,115.22,275.44ZM98.08,292.11a8.13,8.13,0,0,1-6.86-2.26,4.58,4.58,0,0,1-.86-4.4,3.7,3.7,0,0,1,3.22-2.66,7.63,7.63,0,0,1,2-.07c3.91.31,9.26,3,14,8.25-5.67-3.76-12.84-5.36-15.26-5.3a.51.51,0,0,0-.5.53.52.52,0,0,0,.53.51c2.42,0,9.9,1.65,15.44,5.67C105.15,291.33,98.46,292.07,98.08,292.11Z" style="fill:#455a64"></path><path d="M120,210.66c-3.35.25-8.51-.27-11.36-1.66-5.85-2.85-10.26-9.38-11.58-15.71a5.71,5.71,0,0,1,.11-3.45,2.43,2.43,0,0,1,2.81-1.5,3.68,3.68,0,0,1,1.79,1.93l3.89,7.09a17.6,17.6,0,0,1-.48-8.91c.23-1.07.78-2.33,1.87-2.44,1.31-.14,2.07,1.41,2.36,2.69a31.11,31.11,0,0,1,.58,10.09,34.41,34.41,0,0,1,7.14-8.17,2.36,2.36,0,0,1,2-.77c1.22.33,1.15,2.09.72,3.27a22.3,22.3,0,0,1-4.52,7.35,25.84,25.84,0,0,1,10.77-4.31,2.29,2.29,0,0,1,1.75.22c1,.73.3,2.27-.52,3.16-2.41,2.63-4.71,3.84-8,5.29,2.08-.24,8.22.16,8.7,1.83S124.4,210.34,120,210.66Z" style="fill:#745296"></path></g><g id="freepik--plant--inject-3"><path d="M142.31,280.63c3.73,0,13.51,1.51,23.69,15.44,17.83,24.39,11.34,57.69,10.37,62.09l-6.2,2.79c.32-13.14-1.45-21.33-6-28-5.37-7.91-12.62-14.61-18.45-20-2.94-2.72-5.49-5.07-7.29-7.11-8.36-9.4-9.67-16.7-4-22.32a11.07,11.07,0,0,1,7.9-2.89m0-1a12,12,0,0,0-8.63,3.2c-6.06,6-4.73,13.95,4,23.74,5.49,6.19,17.68,15.25,25.67,27,4.91,7.23,6.22,16.31,5.76,29.06l8.19-3.68s9.12-36.69-10.43-63.45c-8.3-11.34-17.5-15.86-24.53-15.86Z" style="fill:#745296"></path><path d="M174.88,348.32a.51.51,0,0,1-.52-.51c-.53-37.22-37.94-62.53-38.32-62.77a.52.52,0,0,1,.55-.88c.39.24,38.27,25.88,38.81,63.64a.52.52,0,0,1-.52.52Z" style="fill:#745296"></path><path d="M144.09,291.12l-.11,0a.51.51,0,0,1-.4-.61l1.55-7.4a.52.52,0,0,1,1,.22l-1.56,7.39A.51.51,0,0,1,144.09,291.12Z" style="fill:#745296"></path><path d="M137,296.53a.52.52,0,0,1-.14-1l9.62-2.7a.52.52,0,0,1,.28,1l-9.62,2.7A.34.34,0,0,1,137,296.53Z" style="fill:#745296"></path><path d="M151.77,298.39l-.14,0a.51.51,0,0,1-.36-.64l2.71-9.6a.51.51,0,0,1,.64-.35.52.52,0,0,1,.36.64L152.27,298A.51.51,0,0,1,151.77,298.39Z" style="fill:#745296"></path><path d="M142.17,305.44a.52.52,0,0,1-.15-1l12.28-3.69a.52.52,0,0,1,.3,1l-12.28,3.69A.39.39,0,0,1,142.17,305.44Z" style="fill:#745296"></path><path d="M158.65,306.28a.63.63,0,0,1-.19,0,.53.53,0,0,1-.3-.67l3.92-10.48a.52.52,0,1,1,1,.36l-3.92,10.48A.5.5,0,0,1,158.65,306.28Z" style="fill:#745296"></path><path d="M148.46,310.89a.52.52,0,0,1-.13-1l11.18-2.7a.53.53,0,0,1,.63.39.5.5,0,0,1-.38.62l-11.18,2.7Z" style="fill:#745296"></path><path d="M164.06,313.17a.55.55,0,0,1-.25-.07.52.52,0,0,1-.21-.7l4.57-8.33a.52.52,0,0,1,.71-.21.52.52,0,0,1,.2.71l-4.57,8.33A.51.51,0,0,1,164.06,313.17Z" style="fill:#745296"></path><path d="M155.68,317.19a.52.52,0,0,1-.05-1l9.19-1a.51.51,0,0,1,.57.46.52.52,0,0,1-.46.57l-9.19.95Z" style="fill:#745296"></path><path d="M167.89,320.67a.46.46,0,0,1-.28-.08.51.51,0,0,1-.16-.72L172,312.7a.51.51,0,0,1,.72-.15.51.51,0,0,1,.15.71l-4.59,7.17A.49.49,0,0,1,167.89,320.67Z" style="fill:#745296"></path><path d="M169.42,324.75h0l-6.62-.13a.52.52,0,0,1-.51-.53.51.51,0,0,1,.53-.51l6.62.13a.52.52,0,0,1,0,1Z" style="fill:#745296"></path><path d="M171.7,329.73a.5.5,0,0,1-.31-.1.51.51,0,0,1-.11-.72l3.94-5.39a.52.52,0,0,1,.73-.12.52.52,0,0,1,.11.73l-3.94,5.39A.53.53,0,0,1,171.7,329.73Z" style="fill:#745296"></path><path d="M172.89,334.39h0l-5-.35a.5.5,0,0,1-.48-.55.52.52,0,0,1,.55-.48l5,.34a.52.52,0,0,1,0,1Z" style="fill:#745296"></path></g><g id="freepik--plant--inject-3"><path d="M180.91,396.73a44.65,44.65,0,0,1-32.27,8.51,37.6,37.6,0,0,1-10.32-2.85c-15.41-6.88-11.13-11.61-8.8-13.52s8.56-6.83,9.94-11a64,64,0,0,1-11.56,5.79c-5.89,2.1-6.93,5.07-13.37-1.95S105,362,105,362s10.08.42,14.73-4c0,0-10.34-.62-14-2.58s-3.66-5.7-5.17-12-4-13.24-.73-14.39,12.09-3.82,25.34.12c0,0,6.57,9.86,7.18,17.13,0,0,2-8.64-2.57-19.8A34.75,34.75,0,0,1,143.07,328c7.24,2.25,12.11,4.83,13.72,7.16S161.42,349,159.05,359c0,0,5.5-6.93,4.43-15.12s1.36-6.65,4.82-5.43c3.11,1.1,20.6,20.48,19.47,45.56a16.72,16.72,0,0,1-6.86,12.68Z" style="fill:#745296"></path><path d="M180.91,396.73a44.65,44.65,0,0,1-32.27,8.51,37.6,37.6,0,0,1-10.32-2.85c-15.41-6.88-11.13-11.61-8.8-13.52s8.56-6.83,9.94-11a64,64,0,0,1-11.56,5.79c-5.89,2.1-6.93,5.07-13.37-1.95S105,362,105,362s10.08.42,14.73-4c0,0-10.34-.62-14-2.58s-3.66-5.7-5.17-12-4-13.24-.73-14.39,12.09-3.82,25.34.12c0,0,6.57,9.86,7.18,17.13,0,0,2-8.64-2.57-19.8A34.75,34.75,0,0,1,143.07,328c7.24,2.25,12.11,4.83,13.72,7.16S161.42,349,159.05,359c0,0,5.5-6.93,4.43-15.12s1.36-6.65,4.82-5.43c3.11,1.1,20.6,20.48,19.47,45.56a16.72,16.72,0,0,1-6.86,12.68Z" style="fill:#fff;opacity:0.2"></path><path d="M175.82,396a.53.53,0,0,1-.41-.2c-39.31-50.44-73.92-63.63-74.27-63.76a.52.52,0,0,1,.36-1c.35.13,35.22,13.39,74.73,64.09a.51.51,0,0,1-.09.73A.48.48,0,0,1,175.82,396Z" style="fill:#fff"></path><path d="M114.8,373.78a.51.51,0,0,1-.5-.37.52.52,0,0,1,.34-.65c.17-.05,16.41-5.09,27.49-13.53a.52.52,0,1,1,.63.82c-11.23,8.56-27.65,13.66-27.81,13.71Z" style="fill:#fff"></path><path d="M140.4,395.08a.52.52,0,0,1-.18-1c.13-.05,13-5.1,23.09-13.38a.52.52,0,1,1,.66.8c-10.18,8.39-23.25,13.5-23.38,13.55A.41.41,0,0,1,140.4,395.08Z" style="fill:#fff"></path><path d="M115.69,345.23a43.54,43.54,0,0,1-10.62-1.48.52.52,0,0,1-.35-.64.51.51,0,0,1,.64-.36c.1,0,10,2.78,16.63.56a.51.51,0,0,1,.65.32.52.52,0,0,1-.32.66A21.23,21.23,0,0,1,115.69,345.23Z" style="fill:#fff"></path><path d="M148.44,365.7l-.16,0A.53.53,0,0,1,148,365c5.42-16.27-2.22-31.35-2.3-31.5a.52.52,0,0,1,.22-.7.51.51,0,0,1,.7.22c.08.15,7.93,15.61,2.37,32.31A.54.54,0,0,1,148.44,365.7Z" style="fill:#fff"></path><path d="M168,385.53a.48.48,0,0,1-.26-.07.51.51,0,0,1-.2-.7,41,41,0,0,0,3.79-29.86.53.53,0,0,1,.36-.64.51.51,0,0,1,.64.36,42,42,0,0,1-3.88,30.64A.51.51,0,0,1,168,385.53Z" style="fill:#fff"></path></g></g><g id="freepik--Flower--inject-3"><path d="M447.38,233.57c2-3-1.53-6.22-4.64-5.24a7.36,7.36,0,0,0-4.09,3.48,7.22,7.22,0,0,0-.55-5.81c-2-3.44-6.59-1.66-7.54,1.44a8.16,8.16,0,0,0,.59,5.84,5.77,5.77,0,0,0-4.82.41,5.25,5.25,0,0,0-2.61,6.2c.67,1.82,6.21,3.29,8.8,0,0,0-3.32,5,.9,7.33,4,2.16,5.58-1.76,5-7.33,0,0,2.44,4.42,5.89,3.61s3.38-3.61,1.23-6c-.88-1-4.41-1.67-4.41-1.67S445.38,236.58,447.38,233.57Z" style="fill:#f0f0f0"></path><path d="M434.74,234.51a4.72,4.72,0,0,0-2.3-1.52l0-.13a4.85,4.85,0,0,1,2.38,1.56Z" style="fill:#e0e0e0"></path><circle cx="432.45" cy="232.92" r="0.36" style="fill:#e6e6e6"></circle><path d="M431.71,236.8l-.08-.1a4.84,4.84,0,0,1,2.69-.94v.14A4.76,4.76,0,0,0,431.71,236.8Z" style="fill:#e0e0e0"></path><path d="M431.45,237a.36.36,0,0,1,.44-.58.36.36,0,0,1-.44.58Z" style="fill:#e6e6e6"></path><path d="M433.65,238.68h-.13a4.86,4.86,0,0,1,1.27-2.55l.1.09A4.87,4.87,0,0,0,433.65,238.68Z" style="fill:#e0e0e0"></path><path d="M433.63,239a.35.35,0,0,1-.4-.31.36.36,0,1,1,.4.31Z" style="fill:#e6e6e6"></path><path d="M436.55,239.56a4.9,4.9,0,0,1-.34-2.83l.13,0a4.77,4.77,0,0,0,.33,2.75Z" style="fill:#e0e0e0"></path><path d="M436.84,239.8a.35.35,0,0,1-.5,0,.36.36,0,0,1,0-.51.36.36,0,0,1,.51.05A.36.36,0,0,1,436.84,239.8Z" style="fill:#e6e6e6"></path><path d="M439.76,237.17a4.9,4.9,0,0,1-2.64-1.08l.09-.1a4.76,4.76,0,0,0,2.56,1Z" style="fill:#e0e0e0"></path><path d="M440.12,237a.36.36,0,1,1-.43-.28A.36.36,0,0,1,440.12,237Z" style="fill:#e6e6e6"></path><path d="M437.71,234.65l-.07-.11a4.83,4.83,0,0,0,1.89-2l.12,0A4.73,4.73,0,0,1,437.71,234.65Z" style="fill:#e0e0e0"></path><path d="M439.65,232.19a.36.36,0,0,1,.3.42.37.37,0,0,1-.42.29.35.35,0,0,1-.29-.41A.36.36,0,0,1,439.65,232.19Z" style="fill:#e6e6e6"></path><path d="M436.8,233l-.12-.06a4.63,4.63,0,0,0,.4-2.73l.14,0A4.94,4.94,0,0,1,436.8,233Z" style="fill:#e0e0e0"></path><path d="M437,229.9a.36.36,0,0,1,.48.17.36.36,0,1,1-.48-.17Z" style="fill:#e6e6e6"></path><path d="M435.66,234.6a4.94,4.94,0,0,1-.42-2.82l.14,0a4.66,4.66,0,0,0,.4,2.74Z" style="fill:#e0e0e0"></path><path d="M435.46,231.46a.36.36,0,1,0,.18.48A.37.37,0,0,0,435.46,231.46Z" style="fill:#e6e6e6"></path><path d="M436,235.3s.21-2.41-1.71-2c-1.14,1.69,1.72,2.27,1.72,2.27Z" style="fill:#fafafa"></path><path d="M435.77,235.43s-2-1.38-2.61.48c.89,1.83,2.83-.36,2.83-.36Z" style="fill:#fafafa"></path><path d="M435.78,235.68s-2.19,1-.89,2.5c2,.14,1.1-2.63,1.1-2.63Z" style="fill:#fafafa"></path><path d="M436,235.8s-.21,2.41,1.71,2c1.14-1.68-1.72-2.27-1.72-2.27Z" style="fill:#fafafa"></path><path d="M436.21,235.67s2,1.39,2.6-.48c-.88-1.82-2.82.36-2.82.36Z" style="fill:#fafafa"></path><path d="M436.2,235.42s2.19-1,.89-2.49c-2-.15-1.1,2.62-1.1,2.62Z" style="fill:#fafafa"></path></g><g id="freepik--flower--inject-3"><path d="M417,162.64c2-3-1.53-6.22-4.65-5.24a7.46,7.46,0,0,0-4.09,3.47,7.19,7.19,0,0,0-.54-5.8c-2.05-3.44-6.6-1.67-7.54,1.44a8.13,8.13,0,0,0,.58,5.84,5.76,5.76,0,0,0-4.82.41,5.26,5.26,0,0,0-2.61,6.2c.67,1.82,6.22,3.29,8.8,0,0,0-3.32,5,.91,7.32,4,2.17,5.57-1.75,5-7.32,0,0,2.45,4.42,5.89,3.61s3.38-3.61,1.23-6c-.88-1-4.4-1.68-4.4-1.68S415,165.65,417,162.64Z" style="fill:#f0f0f0"></path><path d="M404.39,163.58a4.84,4.84,0,0,0-2.31-1.53l0-.13a4.91,4.91,0,0,1,2.38,1.57Z" style="fill:#e0e0e0"></path><circle cx="402.1" cy="161.99" r="0.36" style="fill:#e6e6e6"></circle><path d="M401.36,165.87l-.09-.11a5,5,0,0,1,2.69-.93V165A4.66,4.66,0,0,0,401.36,165.87Z" style="fill:#e0e0e0"></path><path d="M401.09,166.1a.36.36,0,0,1-.06-.5.35.35,0,0,1,.5-.07.37.37,0,0,1,.07.51A.37.37,0,0,1,401.09,166.1Z" style="fill:#e6e6e6"></path><path d="M403.3,167.75l-.14,0a4.94,4.94,0,0,1,1.28-2.54l.09.09A4.72,4.72,0,0,0,403.3,167.75Z" style="fill:#e0e0e0"></path><path d="M403.27,168.1a.36.36,0,1,1-.08-.72.36.36,0,0,1,.08.72Z" style="fill:#e6e6e6"></path><path d="M406.19,168.63a5,5,0,0,1-.33-2.83l.13,0a4.77,4.77,0,0,0,.32,2.74Z" style="fill:#e0e0e0"></path><path d="M406.49,168.87a.36.36,0,1,1,0-.51A.36.36,0,0,1,406.49,168.87Z" style="fill:#e6e6e6"></path><path d="M409.41,166.23a4.88,4.88,0,0,1-2.64-1.07l.08-.11a4.75,4.75,0,0,0,2.56,1Z" style="fill:#e0e0e0"></path><path d="M409.76,166.1a.36.36,0,0,1-.28.42.37.37,0,0,1-.43-.28.37.37,0,0,1,.29-.43A.37.37,0,0,1,409.76,166.1Z" style="fill:#e6e6e6"></path><path d="M407.35,163.72l-.06-.12a4.71,4.71,0,0,0,1.88-2l.13,0A4.92,4.92,0,0,1,407.35,163.72Z" style="fill:#e0e0e0"></path><path d="M409.3,161.26a.36.36,0,0,1-.12.71.37.37,0,0,1-.3-.42A.36.36,0,0,1,409.3,161.26Z" style="fill:#e6e6e6"></path><path d="M406.44,162.1l-.12-.06a4.81,4.81,0,0,0,.41-2.74l.13,0A4.94,4.94,0,0,1,406.44,162.1Z" style="fill:#e0e0e0"></path><path d="M406.64,159a.36.36,0,1,1-.17.48A.36.36,0,0,1,406.64,159Z" style="fill:#e6e6e6"></path><path d="M405.31,163.66a4.93,4.93,0,0,1-.42-2.82l.13,0a4.78,4.78,0,0,0,.41,2.73Z" style="fill:#e0e0e0"></path><path d="M405.11,160.53a.37.37,0,0,0-.48.18.34.34,0,0,0,.17.47.35.35,0,0,0,.48-.17A.37.37,0,0,0,405.11,160.53Z" style="fill:#e6e6e6"></path><path d="M405.63,164.37s.21-2.41-1.72-2c-1.14,1.68,1.72,2.27,1.72,2.27Z" style="fill:#fafafa"></path><path d="M405.41,164.5s-2-1.38-2.6.48c.89,1.82,2.82-.36,2.82-.36Z" style="fill:#fafafa"></path><path d="M405.42,164.75s-2.19,1-.89,2.49c2,.15,1.1-2.62,1.1-2.62Z" style="fill:#fafafa"></path><path d="M405.64,164.87s-.21,2.41,1.71,2c1.14-1.69-1.72-2.27-1.72-2.27Z" style="fill:#fafafa"></path><path d="M405.85,164.74s2,1.38,2.61-.48c-.89-1.83-2.83.36-2.83.36Z" style="fill:#fafafa"></path><path d="M405.85,164.49s2.19-1,.89-2.5c-2-.14-1.11,2.63-1.11,2.63Z" style="fill:#fafafa"></path></g><g id="freepik--flower--inject-3"><path d="M101.4,151.45c2-3-1.53-6.22-4.64-5.25a7.47,7.47,0,0,0-4.09,3.48,7.23,7.23,0,0,0-.54-5.8c-2-3.45-6.6-1.67-7.55,1.44a8.16,8.16,0,0,0,.59,5.84,5.72,5.72,0,0,0-4.82.41,5.24,5.24,0,0,0-2.61,6.19c.67,1.83,6.21,3.3,8.8,0,0,0-3.32,5,.9,7.33,4,2.16,5.58-1.75,5-7.33,0,0,2.44,4.43,5.89,3.62s3.38-3.62,1.23-6c-.88-1-4.41-1.67-4.41-1.67S99.41,154.45,101.4,151.45Z" style="fill:#f0f0f0"></path><path d="M88.76,152.38a4.72,4.72,0,0,0-2.3-1.52l0-.13a4.91,4.91,0,0,1,2.38,1.57Z" style="fill:#e0e0e0"></path><circle cx="86.47" cy="150.8" r="0.36" style="fill:#e6e6e6"></circle><path d="M85.73,154.68l-.08-.11a4.87,4.87,0,0,1,2.69-.93v.13A4.73,4.73,0,0,0,85.73,154.68Z" style="fill:#e0e0e0"></path><path d="M85.47,154.91a.37.37,0,0,1-.07-.51.37.37,0,0,1,.51-.06.35.35,0,0,1,.07.5A.37.37,0,0,1,85.47,154.91Z" style="fill:#e6e6e6"></path><path d="M87.68,156.56l-.14,0A4.93,4.93,0,0,1,88.81,154l.1.1A4.68,4.68,0,0,0,87.68,156.56Z" style="fill:#e0e0e0"></path><path d="M87.65,156.91a.36.36,0,0,1-.4-.32.36.36,0,1,1,.4.32Z" style="fill:#e6e6e6"></path><path d="M90.57,157.43a4.9,4.9,0,0,1-.34-2.83l.14,0a4.79,4.79,0,0,0,.32,2.74Z" style="fill:#e0e0e0"></path><path d="M90.86,157.68a.34.34,0,0,1-.5-.05.35.35,0,0,1,0-.5.36.36,0,1,1,.46.55Z" style="fill:#e6e6e6"></path><path d="M93.78,155A4.93,4.93,0,0,1,91.14,154l.09-.11a4.72,4.72,0,0,0,2.56,1Z" style="fill:#e0e0e0"></path><path d="M94.14,154.9a.36.36,0,1,1-.71.14.36.36,0,0,1,.71-.14Z" style="fill:#e6e6e6"></path><path d="M91.73,152.53l-.07-.12a4.71,4.71,0,0,0,1.89-2l.12.06A4.84,4.84,0,0,1,91.73,152.53Z" style="fill:#e0e0e0"></path><path d="M93.67,150.06a.36.36,0,1,1-.12.72.37.37,0,0,1,.12-.72Z" style="fill:#e6e6e6"></path><path d="M90.82,150.9l-.12-.06a4.78,4.78,0,0,0,.41-2.73l.13,0A4.94,4.94,0,0,1,90.82,150.9Z" style="fill:#e0e0e0"></path><path d="M91,147.77a.37.37,0,0,1,.48.18.36.36,0,0,1-.66.3A.37.37,0,0,1,91,147.77Z" style="fill:#e6e6e6"></path><path d="M89.68,152.47a4.79,4.79,0,0,1-.41-2.82l.13,0a4.68,4.68,0,0,0,.41,2.73Z" style="fill:#e0e0e0"></path><path d="M89.48,149.34a.36.36,0,0,0-.48.17.37.37,0,0,0,.18.48.36.36,0,0,0,.48-.17A.37.37,0,0,0,89.48,149.34Z" style="fill:#e6e6e6"></path><path d="M90,153.18s.21-2.41-1.71-2c-1.14,1.68,1.72,2.27,1.72,2.27Z" style="fill:#fafafa"></path><path d="M89.79,153.31s-2-1.39-2.6.47c.88,1.83,2.82-.35,2.82-.35Z" style="fill:#fafafa"></path><path d="M89.8,153.56s-2.19,1-.89,2.49c2,.15,1.1-2.62,1.1-2.62Z" style="fill:#fafafa"></path><path d="M90,153.67s-.21,2.41,1.71,2C92.87,154,90,153.43,90,153.43Z" style="fill:#fafafa"></path><path d="M90.23,153.54s2,1.39,2.61-.47c-.89-1.83-2.83.36-2.83.36Z" style="fill:#fafafa"></path><path d="M90.22,153.3s2.19-1,.89-2.5c-2-.14-1.1,2.63-1.1,2.63Z" style="fill:#fafafa"></path></g><g id="freepik--flower--inject-3"><path d="M56,237.36c2-3-1.53-6.22-4.64-5.24a7.36,7.36,0,0,0-4.09,3.48,7.22,7.22,0,0,0-.55-5.81c-2-3.44-6.59-1.66-7.54,1.44a8.16,8.16,0,0,0,.59,5.84,5.77,5.77,0,0,0-4.82.41,5.25,5.25,0,0,0-2.61,6.2c.67,1.82,6.21,3.29,8.8,0,0,0-3.32,5,.9,7.33,4,2.16,5.58-1.76,5-7.33,0,0,2.44,4.42,5.89,3.61s3.38-3.61,1.23-6c-.88-1-4.41-1.67-4.41-1.67S54,240.37,56,237.36Z" style="fill:#f0f0f0"></path><path d="M43.33,238.3a4.64,4.64,0,0,0-2.3-1.52l0-.13a4.85,4.85,0,0,1,2.38,1.56Z" style="fill:#e0e0e0"></path><path d="M40.68,236.71a.36.36,0,1,1,.36.36A.36.36,0,0,1,40.68,236.71Z" style="fill:#e6e6e6"></path><path d="M40.3,240.59l-.08-.1a4.84,4.84,0,0,1,2.69-.94v.14A4.76,4.76,0,0,0,40.3,240.59Z" style="fill:#e0e0e0"></path><path d="M40,240.82a.35.35,0,0,1-.07-.5.37.37,0,0,1,.51-.07.36.36,0,0,1,.06.51A.34.34,0,0,1,40,240.82Z" style="fill:#e6e6e6"></path><path d="M42.24,242.47h-.13a4.86,4.86,0,0,1,1.27-2.55l.1.09A4.87,4.87,0,0,0,42.24,242.47Z" style="fill:#e0e0e0"></path><path d="M42.22,242.82a.35.35,0,0,1-.4-.31.36.36,0,1,1,.4.31Z" style="fill:#e6e6e6"></path><path d="M45.14,243.35a4.92,4.92,0,0,1-.34-2.83l.13,0a4.79,4.79,0,0,0,.33,2.75Z" style="fill:#e0e0e0"></path><path d="M45.43,243.59a.35.35,0,0,1-.5,0,.36.36,0,1,1,.5,0Z" style="fill:#e6e6e6"></path><path d="M48.35,241a4.9,4.9,0,0,1-2.64-1.08l.09-.1a4.76,4.76,0,0,0,2.56,1Z" style="fill:#e0e0e0"></path><path d="M48.71,240.82A.36.36,0,0,1,48,241a.35.35,0,0,1,.28-.42A.36.36,0,0,1,48.71,240.82Z" style="fill:#e6e6e6"></path><path d="M46.3,238.44l-.07-.11a4.83,4.83,0,0,0,1.89-2l.12.05A4.78,4.78,0,0,1,46.3,238.44Z" style="fill:#e0e0e0"></path><path d="M48.24,236a.36.36,0,0,1,.3.42.37.37,0,0,1-.42.29.36.36,0,0,1,.12-.71Z" style="fill:#e6e6e6"></path><path d="M45.39,236.82l-.12-.06a4.63,4.63,0,0,0,.4-2.73l.14,0A4.94,4.94,0,0,1,45.39,236.82Z" style="fill:#e0e0e0"></path><path d="M45.59,233.69a.36.36,0,0,1,.48.17.36.36,0,0,1-.66.3A.36.36,0,0,1,45.59,233.69Z" style="fill:#e6e6e6"></path><path d="M44.25,238.38a4.91,4.91,0,0,1-.42-2.81l.14,0a4.63,4.63,0,0,0,.4,2.73Z" style="fill:#e0e0e0"></path><path d="M44.05,235.25a.36.36,0,1,0,.18.48A.37.37,0,0,0,44.05,235.25Z" style="fill:#e6e6e6"></path><path d="M44.57,239.09s.21-2.41-1.71-2c-1.14,1.69,1.72,2.27,1.72,2.27Z" style="fill:#fafafa"></path><path d="M44.36,239.22s-2-1.38-2.61.48c.89,1.83,2.83-.36,2.83-.36Z" style="fill:#fafafa"></path><path d="M44.37,239.47s-2.19,1-.89,2.5c2,.14,1.1-2.63,1.1-2.63Z" style="fill:#fafafa"></path><path d="M44.59,239.59s-.21,2.41,1.71,2c1.14-1.68-1.72-2.27-1.72-2.27Z" style="fill:#fafafa"></path><path d="M44.8,239.46s2,1.38,2.6-.48c-.88-1.82-2.82.36-2.82.36Z" style="fill:#fafafa"></path><path d="M44.79,239.21s2.19-1,.89-2.49c-2-.15-1.1,2.62-1.1,2.62Z" style="fill:#fafafa"></path></g></g><g id="freepik--Character--inject-3"><g id="freepik--character--inject-3"><path id="freepik--Hair--inject-3" d="M251.18,152.85A17.7,17.7,0,0,0,257,138.29c5.55,1.23,11.35-1.53,13.13-6.31a12.17,12.17,0,0,0-4.12-13.67c3.9-1.06,6.31-5.55,5.54-9.51a10.81,10.81,0,0,0-8.18-8,7.07,7.07,0,0,0,2.73-10.9c-2,4.21-7.74,5.62-12.12,4a17.79,17.79,0,0,1-8.28-7.11,5.57,5.57,0,0,1-1.21-4.14c.23-1.32,1.51-2.61,2.07-3.94,2.48-5.77,1.76-13.45-2.11-18.46a19.12,19.12,0,0,0-13.15-7.57A30,30,0,0,0,218,47.75a32.29,32.29,0,0,0-25.44,8.92c-8.12,7.77-10.66,19.16-11.26,30-.62,11.26-.24,23.45,5.35,35.33,4.77,10.14,10.92,18.21,20.51,24C217.92,152.51,238.5,163.92,251.18,152.85Z" style="fill:#263238"></path><g id="freepik--arm-with-mask--inject-3"><path d="M145.16,129.33a24.86,24.86,0,0,1-.45-4c-.35-6.54-3.58-12.42-7.05-17.81-.59-.92-1.2-1.84-1.81-2.75a14.62,14.62,0,0,1-.84-1.36c-.22-.45-.42-.82-1-.71a1.78,1.78,0,0,0-1.08.75,5.34,5.34,0,0,0-.76,4.26,26.28,26.28,0,0,0,1.45,4.22c.41,1.07-.85.71-1.41.46-2.78-1.26-5.35-4-7-6.5a40.08,40.08,0,0,0-3.29-4.88,6,6,0,0,0-3.07-1.87c-.81-.17-1.62,0-1.73,1a4.28,4.28,0,0,0,.45,1.86,8.13,8.13,0,0,1,.56,3.12,21.87,21.87,0,0,1-1,4.47c-.87,3.56-.5,8,1.71,11a43.16,43.16,0,0,0,6.34,7,28.68,28.68,0,0,1,4.26,4.68c2.08,3.06,2.49,7.93,4.15,16.67,1.5,7.86,1.91,12.55,4.34,20.89s4.12,11.85,6.66,13.79,7,5.29,15.45-3c9.41-9.19,27.9-35.46,27.9-35.46l2.58-31.49s-10.48-.83-16.39,8-20.51,33.18-20.51,33.18S146.17,132.84,145.16,129.33Z" style="fill:#ffa8a7"></path><path d="M192.18,112.9c-7.27-.37-13.49.78-18.16,7.3-4.34,6.06-15.91,26.87-15.91,26.87s12.4,4.15,16.63,15.58l15.67-16.87Z" style="fill:#745296"></path><path d="M192.18,112.9c-7.27-.37-13.49.78-18.16,7.3-4.34,6.06-15.91,26.87-15.91,26.87s12.4,4.15,16.63,15.58l15.67-16.87Z" style="opacity:0.2"></path><path d="M122.81,139.84h-.08a1.07,1.07,0,0,1-1-1.14l3.81-50.17a1.05,1.05,0,0,1,2.1.16l-3.8,50.17A1,1,0,0,1,122.81,139.84Z" style="fill:#263238"></path><path d="M113.89,44.77c1-3.24,8.53-4.16,8-2a54.77,54.77,0,0,0-1.19,11.43C112.83,50.25,113.89,44.77,113.89,44.77Z" style="fill:#f28f8f"></path><path d="M148.28,68.7c-2.22,15.64-5.22,17.86-7.56,18.94a33.14,33.14,0,0,1-12.62,3h0c-.33,0-7.17.27-9.89-.45-4.64-1.22-6.83-3.75-7.73-9-1.39-8.17-1-21.45,3.42-36.46v0c.1,3,7.47,5.37,12.42,6.3,9.77,1.83,14.63.11,19.81-1.79,2.6-.95,3.69-.18,3.74,1.93C149.93,54.06,149.59,59.49,148.28,68.7Z" style="fill:#ffa8a7"></path><path d="M138,76.27c-4.91,1.51-9.17-.58-14.91-1.63a11.39,11.39,0,0,0-6.74.6c-1.7.52-2.76.94-4,.59s-2.54-1.55-2.63-4.65a44.63,44.63,0,0,0,0,6.23c.32,4.24.82,8.85,4.23,11.34,2.44,1.78,6.24,2.37,10.83,2.29a44.22,44.22,0,0,0,9.13-.92c4.41-1,6.94-1.91,8.56-3.28a11.19,11.19,0,0,0,3.06-5.1c1.85-4.82,2.95-13.81,3.09-15.94A15.38,15.38,0,0,1,138,76.27Z" style="fill:#455a64"></path><g id="freepik--Face--inject-3"><polygon points="125.14 59.87 122.99 73.23 116.6 70.27 125.14 59.87" style="fill:#f28f8f"></polygon></g><path d="M139.4,58.23l-4.74-2.66a2.85,2.85,0,0,0,1.09,3.79A2.64,2.64,0,0,0,139.4,58.23Z" style="fill:#263238"></path><path d="M117.43,53.07l-5,2.18a2.65,2.65,0,0,0,3.52,1.49A2.88,2.88,0,0,0,117.43,53.07Z" style="fill:#263238"></path><path d="M130,79.77a4.07,4.07,0,0,0-.36-.3,3.69,3.69,0,0,0-1.1-.47,5.09,5.09,0,0,0-2.36,0,4.57,4.57,0,0,0-1.79.82c-.5.38-1.15,1-1.05,1.7,0,.14.14.37.32.34s.52-.38.75-.59a4.65,4.65,0,0,1,.7-.54,4.47,4.47,0,0,1,1.59-.62,4.57,4.57,0,0,1,1.43,0,3.11,3.11,0,0,1,.67.16,3.81,3.81,0,0,0,.92.3.64.64,0,0,0,.34,0,.29.29,0,0,0,.17-.27A.82.82,0,0,0,130,79.77Z" style="fill:#263238"></path><path d="M131.31,64.5c-.23,1.26.71,1.77,1.92,2s2.23.06,2.46-1.2a2.26,2.26,0,0,0-1.77-2.67A2.29,2.29,0,0,0,131.31,64.5Z" style="fill:#263238"></path><path d="M113.54,62.4c0,1.27,1,1.54,2.25,1.53s2.21-.3,2.2-1.57a2.23,2.23,0,1,0-4.45,0Z" style="fill:#263238"></path><path d="M153.51,154.7a38.37,38.37,0,0,1,3.63,13.62s2.21-9.37-1.56-17.06Z" style="fill:#f28f8f"></path></g><g id="freepik--Legs--inject-3"><path d="M234.74,432.41c.42,1.67,1.31,6.39,10.08,6.39s13.81-3.6,15.54-8.06.73-7.76.57-11.65,2.73-6.37,3.37-8.47c.94-3.1-1.64-7.36-1.64-7.36Z" style="fill:#263238"></path><path d="M153.25,412.38c-.31.27-.27,3.08.78,4.28.73.83,7.12,4.69,14.47,3.15a34.32,34.32,0,0,0,14.85-6.65c4.13-2.93,7.09-3.55,11.52-3.91,4.28-.35,7.37-1.46,7.64-2.6.48-2,.42-3.25-.52-3.15Z" style="fill:#263238"></path><path d="M259.49,397.37c0,8-16.08,8.88-15.7,2.44l-6.86-24.6,19.88-1.49Z" style="fill:#ffa8a7"></path><path d="M234.82,428.41c.57-1.52,2.51-3.86,3.32-5.27.41-.74.81-1.48,1.19-2.23A44.57,44.57,0,0,0,243.16,410a22,22,0,0,0,.28-5.31,43.94,43.94,0,0,0-.63-5.37,3.27,3.27,0,0,1-.07-.88,1.14,1.14,0,0,1,.36-.78c.48-.4,1.62,0,2.17.08q1.29.16,2.58.24a37.45,37.45,0,0,0,5.19-.09,6.11,6.11,0,0,1,1.76,0,1.85,1.85,0,0,1,1.36,1,4.39,4.39,0,0,1,.08,1.54c0,.26.1.6.36.62s.37-.18.49-.36c.54-.87,1.09-1.74,1.64-2.61a2.66,2.66,0,0,0,.62-2c-.07-.46-.11-1.1-.17-1.56.75-.34,2,2.6,2.94,4.8,1.11,2.55,2.45,5.42,1.78,8.26a23.37,23.37,0,0,1-1.86,4.49,17.5,17.5,0,0,0-2.08,8.05c.05,1.23.31,2.44.31,3.67a10.78,10.78,0,0,1-6.31,9.78c-5,2.36-13,3.19-18.09.15C234.08,432.71,234.26,429.93,234.82,428.41Z" style="fill:#455a64"></path><path d="M259.22,428.46s-.85-5.53-10.13-6.36-12.09,1.65-13.45,3.76-2.45,6.19.33,8.13,9.58,3.46,16.51.52C259.22,431.65,259.22,428.46,259.22,428.46Z" style="fill:#fafafa"></path><path d="M198,390.37a15.41,15.41,0,0,1-15.6,1.48l-2.56-28.59,20.35.76Z" style="fill:#ffa8a7"></path><path d="M238.46,206.79c3.46,31.74,8,100.58,8,100.58s5.2,9.55,7.23,24.86c2.5,18.91,4.37,52.89,4.37,52.89s-7.6,6.08-17.42,3.57c0,0-18.63-55.39-22.55-74-3.43-16.24-9.5-55.42-9.5-55.42l-6.52,50.39A96.66,96.66,0,0,1,204.51,334c-.36,8.74-5.34,42.31-5.34,42.31-2.85,2.69-14.66,2.16-18.31-.16,0,0-3-24-6.84-66.52-1.09-12.08-2.35-104-2.35-104Z" style="fill:#745296"></path><path d="M238.46,206.79c3.46,31.74,8,100.58,8,100.58s5.2,9.55,7.23,24.86c2.5,18.91,4.37,52.89,4.37,52.89s-7.6,6.08-17.42,3.57c0,0-18.63-55.39-22.55-74-3.43-16.24-9.5-55.42-9.5-55.42l-6.52,50.39A96.66,96.66,0,0,1,204.51,334c-.36,8.74-5.34,42.31-5.34,42.31-2.85,2.69-14.66,2.16-18.31-.16,0,0-3-24-6.84-66.52-1.09-12.08-2.35-104-2.35-104Z" style="opacity:0.30000000000000004"></path><path d="M208.64,259.26l-5.15-23.75s-10.05-.09-16.81-5.52c0,0,1.6,7.48,12.66,9l6,22.46-3.72,45.93Z" style="opacity:0.15"></path><path d="M156.58,406.47c3.3-1.56,6.56-3.22,9.74-5a47.22,47.22,0,0,0,8.41-5.65,16.86,16.86,0,0,0,5-8.41,4.2,4.2,0,0,1,.35-1.09,1.29,1.29,0,0,1,.86-.69,1.88,1.88,0,0,1,.9.17c0,.09,1.83.69,2,.78a8,8,0,0,0,2,.63,22.15,22.15,0,0,0,4.94.5,3.48,3.48,0,0,1,1.7.26,2.14,2.14,0,0,1,1,1.47,6.31,6.31,0,0,1,0,1.79c0,.37.07.88.44.86a.67.67,0,0,0,.32-.15l2.19-1.58c.51-.36,1.56-.81,1.62-1.52l.26-3.22c2.37-.32,2.22,4.1,3.23,8.85.82,3.84,1.88,6.6,1,9.5-3.45,3.32-9.84,2.86-13.43,3.63-5.08,1.09-7.3,5-14.3,7.79-11.29,4.51-18.75.28-21-1.62C152.19,411.26,152.71,408.31,156.58,406.47Z" style="fill:#455a64"></path><path d="M174.9,415.28c-.15-6.93-5.53-10.1-9.71-10.95-3-.61-5.12-.93-9.72,2.23a6.22,6.22,0,0,0-2.22,7.71,17.37,17.37,0,0,0,11.13,3.47C172.84,417.58,174.9,415.28,174.9,415.28Z" style="fill:#fafafa"></path></g><g id="freepik--Chest--inject-3"><path d="M212,110.44a163.18,163.18,0,0,1,25.66,6.71c6.91,2.43,6,5.07,5.41,16.68-.81,16.61-5.16,35.7-5.89,49.78l1.89,29.15c-8,8.5-47.25,11.84-67.57-.62,0,0,.45-45.81,2.51-70.62,1.43-17.18,10-28.2,16.39-28.69,0,0,4.71-.56,10.71-1.58Z" style="fill:#37474f"></path><path d="M199.29,172a9.09,9.09,0,0,1-1.54-.14,10.76,10.76,0,0,1-8.63-10.16,7.42,7.42,0,0,1,2.57-5.79,7.62,7.62,0,0,1,6.33-1.55,10.76,10.76,0,0,1,8.62,10.16,7.22,7.22,0,0,1-7.35,7.48Zm-2.81-16.22a5.78,5.78,0,0,0-3.78,1.32,5.87,5.87,0,0,0-2,4.6,9.13,9.13,0,0,0,7.34,8.62,6.08,6.08,0,0,0,5-1.2,5.89,5.89,0,0,0,2-4.6,9.16,9.16,0,0,0-7.34-8.63A7.88,7.88,0,0,0,196.48,155.8Z" style="fill:#745296"></path><path d="M197.88,182.39a.77.77,0,0,1-.78-.78v-10.5a.78.78,0,0,1,1.56,0v10.5A.77.77,0,0,1,197.88,182.39Z" style="fill:#745296"></path><path d="M201.78,179.24h-.14l-7.79-1.38a.77.77,0,0,1-.63-.9.78.78,0,0,1,.9-.63l7.79,1.37a.78.78,0,0,1-.13,1.55Z" style="fill:#745296"></path><path d="M204.27,160.25a.75.75,0,0,1-.57-.25.78.78,0,0,1,0-1.1l9.47-8.71a.78.78,0,1,1,1,1.15l-9.46,8.71A.81.81,0,0,1,204.27,160.25Z" style="fill:#745296"></path><path d="M213.18,157.85h-.07a.79.79,0,0,1-.71-.85l.48-5.45-5.45,0h0a.78.78,0,0,1,0-1.56l6.3,0h0a.79.79,0,0,1,.57.25.77.77,0,0,1,.2.6l-.55,6.3A.78.78,0,0,1,213.18,157.85Z" style="fill:#745296"></path><path d="M184.73,155.2a.78.78,0,0,1-.47-1.41l5.75-4.25a.78.78,0,0,1,1.09.17.77.77,0,0,1-.16,1.09L185.19,155A.74.74,0,0,1,184.73,155.2Z" style="fill:#745296"></path><path d="M191.5,158a.79.79,0,0,1-.62-.3L180.9,145a.78.78,0,0,1,1.22-1l10,12.72a.77.77,0,0,1-.13,1.09A.78.78,0,0,1,191.5,158Z" style="fill:#745296"></path><path d="M182.06,151.78a.77.77,0,0,1-.77-.71l-.56-6.5a.8.8,0,0,1,.3-.69.79.79,0,0,1,.74-.11l6.31,2.25a.78.78,0,1,1-.53,1.47l-5.16-1.85.45,5.29a.78.78,0,0,1-.71.85Z" style="fill:#745296"></path></g><g id="freepik--face--inject-3"><path d="M234.73,66.51c.51,1.06,2,8.89,1.64,21.6-.47,14.62-5.07,17.57-7.55,18.65s-6.59,1-11.22.27l-.21,10.5s-2.79,8.61-17.07,7.54c-9.56-.72-3-10.15-3-10.15L197.28,94s-3.78,2.35-7-.24c-4.25-3.4-4.56-8.91-1.58-11.93a5.6,5.6,0,0,1,5.06-1.45c1.82.43,3.09,2.07,3.89,3.65.49,1,.48,2.84,1.6,2.95,2.07.21,3.12-1.9,3.72-3.16,1.41-2.92,2.25-5.3,3.77-6.94a16.28,16.28,0,0,1,7.71-4.92c4.14-1.35,10-.8,13-1.7C231.33,69.11,234,67.54,234.73,66.51Z" style="fill:#ffa8a7"></path><path d="M217.6,107c-4.89-.64-14.41-4.39-16-8.36a8.65,8.65,0,0,0,3.15,5.61c3,2.57,12.77,5.79,12.77,5.79Z" style="fill:#f28f8f"></path><path d="M217.16,82.43a1.95,1.95,0,1,1-1.95-2A2,2,0,0,1,217.16,82.43Z" style="fill:#263238"></path><path d="M216.42,75.16l-4.35,2a2.51,2.51,0,0,1,1.24-3.23A2.34,2.34,0,0,1,216.42,75.16Z" style="fill:#263238"></path><path d="M217.88,94.7,224.1,97a3.26,3.26,0,0,1-4.21,2.07A3.48,3.48,0,0,1,217.88,94.7Z" style="fill:#b16668"></path><path d="M219.89,99.09a3.17,3.17,0,0,0,1.72.13,3,3,0,0,0-3-2.89,3,3,0,0,0-.84.13A3.38,3.38,0,0,0,219.89,99.09Z" style="fill:#f28f8f"></path><path d="M234.93,76.41l-4.5-1.67a2.3,2.3,0,0,1,3-1.46A2.51,2.51,0,0,1,234.93,76.41Z" style="fill:#263238"></path><path d="M233.24,81.78a2,2,0,0,1-1.94,2,2,2,0,1,1,1.94-2Z" style="fill:#263238"></path><path d="M213.5,81.46a1.8,1.8,0,0,1-1.73-.27,1.26,1.26,0,0,0,1.32,1.19C214.2,82.46,213.5,81.46,213.5,81.46Z" style="fill:#263238"></path><path d="M232.62,80.45a1.36,1.36,0,0,0,1.67-.39s.23,1.06-1.14,1.31C232.62,81.22,232.62,80.45,232.62,80.45Z" style="fill:#263238"></path><polygon points="223.53 80.01 224.25 92.41 230.36 90.31 223.53 80.01" style="fill:#f28f8f"></polygon></g><g id="freepik--arm-with-dress--inject-3"><path d="M324.72,107.4c-2.77-1-7.85.09-13.45,1.17s-6.9,3.21-11.63,9S277,146.39,277,146.39s-14.33-11.67-23.46-19.88c-7.47-6.71-9.73-8.05-15.88-9.36-6.52,6.18-5.86,23.73,1.52,30.31,0,0,16.62,10.51,29.69,18,12.65,7.29,17.23,6.19,20.84,1.1a113.49,113.49,0,0,0,6.54-10.47c2.41-4.3,7-14.07,8.25-16.45s3.68-8.08,5.08-10.05c1.05-1.48,3.21-.78,6.79-1.72,2.13-.55,5-1.9,7.05-2.67a19.12,19.12,0,0,1,5.4-1.47,6.28,6.28,0,0,0,3.68-2.07,10.9,10.9,0,0,0,2.56-6.6C335.22,112.61,327.5,108.39,324.72,107.4Z" style="fill:#ffa8a7"></path><path d="M277,146.39c-2.44,2.86-3.52,4.07-4.74,8.56a12,12,0,0,1,3.31-9.73Z" style="fill:#f28f8f"></path><path d="M313.31,108.18l-2,.39c-.59.12-1.13.25-1.63.39l-.56,1.18a77.56,77.56,0,0,0,9.09,1.15,6.21,6.21,0,0,0,4.09-1.64c-.73-.87-1.95-.63-4.53-.73A25.15,25.15,0,0,1,313.31,108.18Z" style="fill:#f28f8f"></path><path d="M311.41,122.7c1.62-1.46,2.27-6.34,2.27-6.34a21.6,21.6,0,0,0,5.55-1c2.2-.87,3-2.2,3.23-3.48s-7.75,1.74-7.75,1.74-4.66,5.21-5.11,7.18,0,4,.65,4.69,1.39,1.86,7.27-1.68,6.75-3.88,6.75-3.88v-2.55l-11.53,6.43Z" style="fill:#f28f8f"></path><path d="M236.4,116.61a23.36,23.36,0,0,1,11.83,4.66C252,124.21,271.68,142,271.68,142s-3.11,2-6.25,7.65a26,26,0,0,0-3.5,11.76l-21.85-12.67a14,14,0,0,1-5.18-5.22,29,29,0,0,1-4.05-14.73C231.16,118.65,236.4,116.61,236.4,116.61Z" style="fill:#745296"></path><path d="M236.4,116.61a23.36,23.36,0,0,1,11.83,4.66C252,124.21,271.68,142,271.68,142s-3.11,2-6.25,7.65a26,26,0,0,0-3.5,11.76l-21.85-12.67a14,14,0,0,1-5.18-5.22,29,29,0,0,1-4.05-14.73C231.16,118.65,236.4,116.61,236.4,116.61Z" style="opacity:0.2"></path><path d="M324.2,156.91c-5.41-2.36-17.54-6.16-22.11-2.26s1.58,10.63,1.88,13.74-3,7.26,0,10.35,14.73,1.7,24.34-7.82Z" style="fill:#745296"></path><path d="M324.2,156.91c-5.41-2.36-17.54-6.16-22.11-2.26s1.58,10.63,1.88,13.74-3,7.26,0,10.35,14.73,1.7,24.34-7.82Z" style="opacity:0.15"></path><path d="M323.62,157.33c-16.31-5.83-24.12-2.6-19,1.13s23.73,1.11,23.73,1.11Z" style="opacity:0.30000000000000004"></path><path d="M314.63,163.19a2.08,2.08,0,0,0-.95.33.74.74,0,0,0-.26.9c.18.31.6.36,1,.38a88,88,0,0,0,9.74-.18L312.4,168.5c-.58.19-1.31.7-1,1.24.21.39.76.37,1.19.3a71.36,71.36,0,0,0,11.95-3.18,7.27,7.27,0,0,0-1.24,1.08c-.45.4-.9.78-1.39,1.14a34.35,34.35,0,0,1-3.25,2.07c-.35.19-.75.49-.67.87s.58.5,1,.48c3.42-.15,6.52-3,8.36-5.63.7-1,1.42-2.63.36-3.69-.75-.74-2.23-.56-3.2-.6A47.64,47.64,0,0,0,314.63,163.19Z" style="opacity:0.30000000000000004"></path><path d="M323.28,167.37c-8.22,3.95-9.39,15.17-25,22.48-16,7.48-26.93-8.18-26.93-8.18s.21,6.82,2.56,10.34c0,0-5.35.06-11-4.6,0,0,.18,9.7,8.53,14.62a30,30,0,0,0,30,0c8.72-4.87,13.7-13.74,19.17-22.38s8.65-8.48,8.65-8.48v-3.82S326.89,165.64,323.28,167.37Z" style="fill:#745296"></path><path d="M323.28,167.37c-8.22,3.95-9.39,15.17-25,22.48-16,7.48-26.93-8.18-26.93-8.18s.21,6.82,2.56,10.34c0,0-5.35.06-11-4.6,0,0,.18,9.7,8.53,14.62a30,30,0,0,0,30,0c8.72-4.87,13.7-13.74,19.17-22.38s8.65-8.48,8.65-8.48v-3.82S326.89,165.64,323.28,167.37Z" style="opacity:0.05"></path><path d="M326.75,95.27l-1.47,2c-.79,12.48-5.43,26.12-7.75,32-2.55,6.47-2.07,8.85,0,8.72s7.59-5.19,9.23-11.16S329.19,99.67,326.75,95.27Z" style="fill:#37474f"></path><path d="M379.72,80.73a3,3,0,0,0-2.3-2.65l-31-6a3.07,3.07,0,0,0-.68,0v-2.5c0-1.75.87-3.43,2.36-5.75a14.93,14.93,0,0,0,2.72-9A4.15,4.15,0,0,0,349,51a4.78,4.78,0,0,0-4.79.41A11.74,11.74,0,0,0,338.63,61a1,1,0,0,0,2.08,0,9.67,9.67,0,0,1,4.5-7.77,2.88,2.88,0,0,1,2.71-.41,2.26,2.26,0,0,1,.81,2,12.9,12.9,0,0,1-2.38,7.85c-1.71,2.65-2.69,4.62-2.69,6.88v3.35a6.53,6.53,0,0,0-1.32,1.35l-31,41.77c-2,2.64-2.32,6.17-.8,7.87a2.5,2.5,0,0,0,1.9.87,3.59,3.59,0,0,0,1.77-.53l62-35.81C378.8,87,380.13,83.19,379.72,80.73Zm-4.53,5.91-62,35.81c-.76.44-1,.18-1.08.08-.66-.75-.63-3.16.92-5.25L344,75.5c.78-1,1.59-1.44,2-1.35l31,6c.33.06.54.38.64.95C378,82.78,376.91,85.65,375.19,86.64Z" style="fill:#e0e0e0"></path><path d="M165.21,266.3a3.77,3.77,0,0,0,1,6.78,4.86,4.86,0,0,0,1.62,8.6,4.1,4.1,0,0,0,2.64,5.83,4.39,4.39,0,0,0-.12,4.23c1,1.82,2.62,1.84,4.26,2.57a3.75,3.75,0,0,0,2,4.57,5.09,5.09,0,0,0-1.31,4.53c.09.56,1.44,4,2.49,3.36a3.41,3.41,0,0,0-.06,5.61,4.36,4.36,0,0,0,3.65,7,4.07,4.07,0,0,0,5.43,5.3,4.66,4.66,0,0,0,5.48,6.29,5,5,0,0,0,8.87,3.24,4.35,4.35,0,0,0,2.44,3.42c1.15.6,2.65.12,3.67.7s1.13,2.08,2.15,2.88c.42.33,3.1,1.44,3.37.36a4.62,4.62,0,0,0,5.12,5.37c-1.25,3,2.22,6.69,5.28,5.62-.67,2.28.66,4.32,2.22,5.85.73.72,4.32,3,5.22,1.3a3.42,3.42,0,0,0,5.25,4.21,4.29,4.29,0,0,0,7.3,2.74,5,5,0,0,0,8.6.13,4.58,4.58,0,0,0,7,.47,3,3,0,0,0,3.66,3.46,4.24,4.24,0,0,0,6,5.45,4.39,4.39,0,0,0,7,3.78c1.13,1.34,2.18,3.17,3.85,3.81.56.21,5.56,0,5.25-.56A5,5,0,0,0,293,384a5.07,5.07,0,0,0,7.25-.77,5,5,0,0,0,7.65-2,4.16,4.16,0,0,0,7.08-2,6.24,6.24,0,0,0,4.15,3.54c.53.09,4.46-.66,4.25-1a5.31,5.31,0,0,0,8,.58c1.53,3.64,7.82,3.54,9.23-.14a7,7,0,0,0,6.06,2.39c2.08-.21,3.16-2.22,5-2.46a4.71,4.71,0,0,1,1.61.25,5.44,5.44,0,0,0,4.27-.87c1.32-.95,1.43-3.35,2.36-4,.38-.26,1.92,0,2.48-.13a5.42,5.42,0,0,0,2.27-1.23,5.52,5.52,0,0,0,1.72-4.73c2.5.77,6.45-.81,6.46-3.79,2.52,2.39,7.47.75,8.07-2.66,2.49,2,6.92.18,7.29-3,2.48,1.48,6.22-.64,6.23-3.53,3.09,1.3,6.57-3.19,4.55-5.86,2.61,1.85,6.44-2.59,4.22-4.9,3.3-1.43,3-6.69.28-9s-6.65-2.56-10.25-2.61c-24.85-.33-49.66,2.21-74.51,2.39s-50.18-2.12-73.13-11.64a122.24,122.24,0,0,1-43.19-30.54,124,124,0,0,1-21.77-33.13c-1.56-3.5-2.37-7.56-5.07-10.42-1.66-1.77-6.19-5.74-8.66-4.17a2.08,2.08,0,0,0-.43,3.15,3.91,3.91,0,0,0-1.16,6.79,4.28,4.28,0,0,0,.28,7.59A3.38,3.38,0,0,0,165.21,266.3Z" style="fill:#745296"></path><path d="M165.21,266.3a3.77,3.77,0,0,0,1,6.78,4.86,4.86,0,0,0,1.62,8.6,4.1,4.1,0,0,0,2.64,5.83,4.39,4.39,0,0,0-.12,4.23c1,1.82,2.62,1.84,4.26,2.57a3.75,3.75,0,0,0,2,4.57,5.09,5.09,0,0,0-1.31,4.53c.09.56,1.44,4,2.49,3.36a3.41,3.41,0,0,0-.06,5.61,4.36,4.36,0,0,0,3.65,7,4.07,4.07,0,0,0,5.43,5.3,4.66,4.66,0,0,0,5.48,6.29,5,5,0,0,0,8.87,3.24,4.35,4.35,0,0,0,2.44,3.42c1.15.6,2.65.12,3.67.7s1.13,2.08,2.15,2.88c.42.33,3.1,1.44,3.37.36a4.62,4.62,0,0,0,5.12,5.37c-1.25,3,2.22,6.69,5.28,5.62-.67,2.28.66,4.32,2.22,5.85.73.72,4.32,3,5.22,1.3a3.42,3.42,0,0,0,5.25,4.21,4.29,4.29,0,0,0,7.3,2.74,5,5,0,0,0,8.6.13,4.58,4.58,0,0,0,7,.47,3,3,0,0,0,3.66,3.46,4.24,4.24,0,0,0,6,5.45,4.39,4.39,0,0,0,7,3.78c1.13,1.34,2.18,3.17,3.85,3.81.56.21,5.56,0,5.25-.56A5,5,0,0,0,293,384a5.07,5.07,0,0,0,7.25-.77,5,5,0,0,0,7.65-2,4.16,4.16,0,0,0,7.08-2,6.24,6.24,0,0,0,4.15,3.54c.53.09,4.46-.66,4.25-1a5.31,5.31,0,0,0,8,.58c1.53,3.64,7.82,3.54,9.23-.14a7,7,0,0,0,6.06,2.39c2.08-.21,3.16-2.22,5-2.46a4.71,4.71,0,0,1,1.61.25,5.44,5.44,0,0,0,4.27-.87c1.32-.95,1.43-3.35,2.36-4,.38-.26,1.92,0,2.48-.13a5.42,5.42,0,0,0,2.27-1.23,5.52,5.52,0,0,0,1.72-4.73c2.5.77,6.45-.81,6.46-3.79,2.52,2.39,7.47.75,8.07-2.66,2.49,2,6.92.18,7.29-3,2.48,1.48,6.22-.64,6.23-3.53,3.09,1.3,6.57-3.19,4.55-5.86,2.61,1.85,6.44-2.59,4.22-4.9,3.3-1.43,3-6.69.28-9s-6.65-2.56-10.25-2.61c-24.85-.33-49.66,2.21-74.51,2.39s-50.18-2.12-73.13-11.64a122.24,122.24,0,0,1-43.19-30.54,124,124,0,0,1-21.77-33.13c-1.56-3.5-2.37-7.56-5.07-10.42-1.66-1.77-6.19-5.74-8.66-4.17a2.08,2.08,0,0,0-.43,3.15,3.91,3.91,0,0,0-1.16,6.79,4.28,4.28,0,0,0,.28,7.59A3.38,3.38,0,0,0,165.21,266.3Z" style="fill:#fff;opacity:0.65"></path><path d="M391.12,250.13c0-63.35-22.42-86.86-28.09-97-9.69,4.53-19.52,8.82-29.08,13.6-2.78,1.39-6.1,2.07-8.44,4-9.75,7.84-15.43,20.25-23.62,29.74-15.48,17.94-37.43,29.36-60.26,35.7S195,244,171.29,245c0,0-4.88,11.6-2.38,27.67s10.78,23,10.78,23S178.1,311.82,190,323.87a53.62,53.62,0,0,0,25.32,14.62s4.22,12.18,21.1,21.93a34.79,34.79,0,0,0,27.73,3.48s2.14,13.39,22.92,16,27.53-6.14,27.53-6.14,10.45,10.83,31.56,6.14c20.88-4.64,21.1-15.07,21.1-15.07s33.45-1.72,36.5-29.42C397.6,319.49,391.12,282.56,391.12,250.13Z" style="fill:#455a64"></path><path d="M316.47,209.34s-27.83,43-80,65.79a129.57,129.57,0,0,1-63.7,10.47c3.21,6.95,6.95,10.11,6.95,10.11s28.55-.31,61-15.7S303.07,235.72,316.47,209.34Z" style="fill:#37474f"></path><path d="M334.09,195.15c-26.63,77.21-76.55,114.1-114.53,131.15a143.4,143.4,0,0,1-17.6,6.76,48.09,48.09,0,0,0,13.38,5.43C295.53,301.94,327,222.07,334.09,195.15Z" style="fill:#37474f"></path><path d="M329.87,246.32c-16.36,47.25-49.44,97-85.76,117.44a33.87,33.87,0,0,0,20.06.14C287.09,345.8,315.36,300.05,329.87,246.32Z" style="fill:#37474f"></path><path d="M351,192.49c.3,51.37-24.26,104.09-34.51,136.65-7.75,24.65-10.53,37.18-11.89,50.07,7.31-1.91,10-5.44,10-5.44,4.21-40.51,12.73-59.2,24-98.23C348.87,240,351.28,217.05,351,192.49Z" style="fill:#37474f"></path><path d="M367.28,364.84c-6.31-17.83-3.72-51.41.58-92.94,5.11-49.43,0-71.88,0-71.88,2.91,18.74-1.17,58.48-5.54,86-3.44,21.69-10.32,66.23-2.51,88.63C367.16,370,367.28,364.84,367.28,364.84Z" style="fill:#37474f"></path><path d="M325.51,163.48v7.17s7.28,4.13,20-2.44C359.77,160.9,363,153.1,363,153.1l-.13-11.21Z" style="fill:#745296"></path><path d="M363.53,94.78c-3.16-8.82-1.88-19.86-1.88-19.86l-6.34-1.22c.9,6.34-.18,14.31-4.44,26.18-2.38,6.65-5.83,16.08-6.67,23.55-.84-6.5-4.28-12-6.67-15.85a30.51,30.51,0,0,1-4.42-20.88l-6.36,8.57a85.68,85.68,0,0,1-.82,22.49c-1.88,10.7-2.68,17-7.59,19.88a2,2,0,0,1-1.35.27c-.55-.15-1.3-.67-1.18-2.48-.39,4,.85,7.54,2.3,10.85,3.23,7.36,5.44,8.77,7.4,17.2,8.36,5.8,36.79-14.76,37.39-21.59,2-10.69,3.77-14.57,6.24-25.06a63.69,63.69,0,0,0,1.73-9.68A39.61,39.61,0,0,1,363.53,94.78Z" style="fill:#455a64"></path><path d="M297,120.83c2.13-2.64,4.12-6.73,6.09-9.22a9.56,9.56,0,0,1,4.84-3c2.49-.5,7,1.24,11.15,1a11.93,11.93,0,0,1,3.19.05c.87.24.79,1.75-.52,3-2.15,2.11-6.84,1.91-9.32,2.38S302.29,123.14,297,120.83Z" style="fill:#ffa8a7"></path></g></g></g><g id="freepik--Sparkles--inject-3"><g id="freepik--Shine--inject-3"><path d="M85.32,314.18a.54.54,0,0,1-.67-.31l-.2-.48a2.73,2.73,0,0,0-3.19-1.6l-.5.13a.54.54,0,0,1-.34-1l.48-.2h0a2.72,2.72,0,0,0,1.6-3.19l-.13-.51a.55.55,0,0,1,.36-.64.54.54,0,0,1,.66.31l.2.48a2.73,2.73,0,0,0,3.19,1.6l.51-.13a.55.55,0,0,1,.64.36.54.54,0,0,1-.31.66l-.48.2a2.73,2.73,0,0,0-1.6,3.19l.13.51A.54.54,0,0,1,85.32,314.18Zm-2.62-3.47a3.81,3.81,0,0,1,1.76.88,3.81,3.81,0,0,1,.88-1.76,3.81,3.81,0,0,1-1.76-.88A3.81,3.81,0,0,1,82.7,310.71Z" style="fill:#745296"></path><path d="M78.1,348.61a3.45,3.45,0,1,1,1.13-4.75A3.46,3.46,0,0,1,78.1,348.61Zm-3.06-5a2.38,2.38,0,1,0,3.27.77A2.38,2.38,0,0,0,75,343.65Z" style="fill:#745296"></path><path d="M67,323.1a.54.54,0,0,1-.74-.18l-1-1.53a.54.54,0,0,1,.18-.74.55.55,0,0,1,.74.18l.94,1.53A.54.54,0,0,1,67,323.1Z" style="fill:#745296"></path><path d="M66.64,324.57l-1.53.95a.54.54,0,0,1-.57-.92l1.53-.94a.54.54,0,0,1,.57.91Z" style="fill:#745296"></path><path d="M69.11,326.54a.54.54,0,0,1-.74-.17l-.94-1.53a.54.54,0,0,1,.91-.57l1,1.53A.54.54,0,0,1,69.11,326.54Z" style="fill:#745296"></path><path d="M70.08,322.45l-1.53.94a.54.54,0,0,1-.74-.17.54.54,0,0,1,.18-.74l1.53-1a.54.54,0,1,1,.56.92Z" style="fill:#745296"></path></g><g id="freepik--shine--inject-3"><path d="M427.59,332.36a.59.59,0,0,1,.79-.12l.47.33a3,3,0,0,0,3.88-.45l.38-.41a.59.59,0,0,1,.92.72l-.32.48h0a3,3,0,0,0,.44,3.87l.42.39a.59.59,0,0,1-.73.92l-.47-.32a3,3,0,0,0-3.87.44l-.39.41a.58.58,0,0,1-.8.06.59.59,0,0,1-.12-.79l.32-.47a3,3,0,0,0-.44-3.87l-.42-.39A.59.59,0,0,1,427.59,332.36Zm4.47,1.61a4.12,4.12,0,0,1-2.14.25,4.11,4.11,0,0,1,.24,2.14,4.12,4.12,0,0,1,2.14-.25A4.11,4.11,0,0,1,432.06,334Z" style="fill:#745296"></path><path d="M413.61,296.56a3.77,3.77,0,1,1,1.81,5A3.77,3.77,0,0,1,413.61,296.56Zm5.76,2.7a2.6,2.6,0,1,0-3.45,1.25A2.59,2.59,0,0,0,419.37,299.26Z" style="fill:#745296"></path><path d="M434.29,313.1a.58.58,0,0,1,.78-.28l1.77.84a.58.58,0,0,1,.29.78.59.59,0,0,1-.78.28l-1.78-.83A.59.59,0,0,1,434.29,313.1Z" style="fill:#745296"></path><path d="M433.72,311.54l.84-1.77a.59.59,0,1,1,1.06.5l-.83,1.77a.59.59,0,0,1-.78.29A.6.6,0,0,1,433.72,311.54Z" style="fill:#745296"></path><path d="M430.28,311.22a.59.59,0,0,1,.78-.28l1.78.84a.58.58,0,0,1,.28.78.59.59,0,0,1-.78.28l-1.78-.83A.6.6,0,0,1,430.28,311.22Z" style="fill:#745296"></path><path d="M431.84,315.55l.84-1.78a.59.59,0,1,1,1.06.5l-.83,1.78a.59.59,0,0,1-1.07-.5Z" style="fill:#745296"></path></g><g id="freepik--shine--inject-3"><path d="M318.51,407.49a.56.56,0,0,1-.19.74l-.46.29a2.86,2.86,0,0,0-1.08,3.57l.22.5a.56.56,0,0,1-1,.53l-.3-.46h0a2.84,2.84,0,0,0-3.57-1.08l-.49.22a.56.56,0,0,1-.53-1l.46-.29a2.86,2.86,0,0,0,1.08-3.57l-.22-.5a.56.56,0,0,1,1-.53l.3.46a2.83,2.83,0,0,0,3.56,1.08l.5-.22A.55.55,0,0,1,318.51,407.49Zm-3.1,3.31a4,4,0,0,1,.6-2,3.91,3.91,0,0,1-2-.59,4,4,0,0,1-.6,2A3.91,3.91,0,0,1,315.41,410.8Z" style="fill:#745296"></path><path d="M345.62,402.68a3.6,3.6,0,1,1-5.08-.31A3.62,3.62,0,0,1,345.62,402.68Zm-4.55,4a2.48,2.48,0,1,0,.21-3.51A2.48,2.48,0,0,0,341.07,406.72Z" style="fill:#745296"></path><path d="M330.82,416.28a.56.56,0,0,1-.05.8l-1.4,1.24a.55.55,0,0,1-.79-.05.56.56,0,0,1,0-.79l1.41-1.24A.56.56,0,0,1,330.82,416.28Z" style="fill:#745296"></path><path d="M332.4,416.38l1.25,1.4a.58.58,0,0,1,0,.8.57.57,0,0,1-.79-.05l-1.25-1.4a.58.58,0,0,1,.05-.8A.57.57,0,0,1,332.4,416.38Z" style="fill:#745296"></path><path d="M334,413.48a.57.57,0,0,1-.05.79l-1.41,1.25a.56.56,0,0,1-.74-.84l1.4-1.25A.58.58,0,0,1,334,413.48Z" style="fill:#745296"></path><path d="M329.6,413.21l1.24,1.41a.56.56,0,1,1-.84.74l-1.24-1.4a.55.55,0,0,1,.05-.79A.56.56,0,0,1,329.6,413.21Z" style="fill:#745296"></path></g><g id="freepik--shine--inject-3"><path d="M112.46,407a.5.5,0,0,1-.68-.06l-.34-.37a2.57,2.57,0,0,0-3.34-.41l-.41.28a.53.53,0,0,1-.69-.11.51.51,0,0,1,.06-.69l.37-.33h0a2.58,2.58,0,0,0,.41-3.35l-.28-.41a.5.5,0,0,1,.11-.68.51.51,0,0,1,.69.05l.33.37a2.58,2.58,0,0,0,3.35.41l.41-.28a.51.51,0,0,1,.68.12.49.49,0,0,1-.06.68l-.36.34a2.57,2.57,0,0,0-.41,3.34l.27.41A.52.52,0,0,1,112.46,407ZM109,404.71a3.55,3.55,0,0,1,1.85.23,3.55,3.55,0,0,1,.23-1.85,3.53,3.53,0,0,1-1.85-.23A3.53,3.53,0,0,1,109,404.71Z" style="fill:#745296"></path><path d="M98.44,400.44a3.26,3.26,0,1,1-.51-4.58A3.26,3.26,0,0,1,98.44,400.44ZM94.14,397a2.24,2.24,0,1,0,3.15-.35A2.24,2.24,0,0,0,94.14,397Z" style="fill:#745296"></path><path d="M95.65,383.13a.52.52,0,0,1-.72.08l-1.32-1.06a.51.51,0,0,1,.63-.8l1.33,1.06A.52.52,0,0,1,95.65,383.13Z" style="fill:#745296"></path><path d="M95.81,384.55l-1.06,1.33a.51.51,0,1,1-.8-.64L95,383.92a.51.51,0,0,1,.8.63Z" style="fill:#745296"></path><path d="M98.64,385.52a.52.52,0,0,1-.72.07l-1.32-1a.51.51,0,0,1,.63-.8l1.33,1.06A.52.52,0,0,1,98.64,385.52Z" style="fill:#745296"></path><path d="M98.2,381.56l-1.06,1.33a.51.51,0,1,1-.8-.64l1.06-1.32a.51.51,0,0,1,.8.63Z" style="fill:#745296"></path></g><g id="freepik--shine--inject-3"><path d="M409.72,377.21a.59.59,0,0,1,.2-.78l.49-.31a3,3,0,0,0,1.15-3.78l-.23-.53a.59.59,0,0,1,1-.56l.31.49h0a3,3,0,0,0,3.78,1.15l.53-.24a.6.6,0,0,1,.56,1.05l-.49.31a3,3,0,0,0-1.15,3.78l.24.53a.6.6,0,0,1-.27.76.58.58,0,0,1-.78-.21l-.31-.48a3,3,0,0,0-3.78-1.15l-.53.23A.59.59,0,0,1,409.72,377.21ZM413,373.7a4.1,4.1,0,0,1-.64,2.09,4.19,4.19,0,0,1,2.09.63,4.13,4.13,0,0,1,.64-2.08A4.3,4.3,0,0,1,413,373.7Z" style="fill:#745296"></path><path d="M404.3,395.19a3.82,3.82,0,1,1,5.39.34A3.83,3.83,0,0,1,404.3,395.19Zm4.83-4.26a2.63,2.63,0,1,0-.23,3.71A2.63,2.63,0,0,0,409.13,390.93Z" style="fill:#745296"></path><path d="M389.1,393.52a.6.6,0,0,1,.06-.84l1.49-1.32a.59.59,0,1,1,.78.89l-1.49,1.32A.6.6,0,0,1,389.1,393.52Z" style="fill:#745296"></path><path d="M387.43,393.41l-1.32-1.49a.59.59,0,1,1,.89-.78l1.32,1.49a.59.59,0,1,1-.89.78Z" style="fill:#745296"></path><path d="M385.75,396.48a.59.59,0,0,1,.05-.84l1.49-1.31a.59.59,0,0,1,.84.05.6.6,0,0,1-.05.84l-1.49,1.32A.6.6,0,0,1,385.75,396.48Z" style="fill:#745296"></path><path d="M390.39,396.77l-1.31-1.49a.59.59,0,0,1,.05-.84.6.6,0,0,1,.84.05l1.32,1.49a.6.6,0,0,1-.06.84A.59.59,0,0,1,390.39,396.77Z" style="fill:#745296"></path></g></g></svg>